<svg width="50" height="50" viewBox="0 0 50 50" fill="none" xmlns="http://www.w3.org/2000/svg">
<path fill-rule="evenodd" clip-rule="evenodd" d="M25 46.875C30.8016 46.875 36.3656 44.5703 40.468 40.468C44.5703 36.3656 46.875 30.8016 46.875 25C46.875 19.1984 44.5703 13.6344 40.468 9.53204C36.3656 5.42968 30.8016 3.125 25 3.125C19.1984 3.125 13.6344 5.42968 9.53204 9.53204C5.42968 13.6344 3.125 19.1984 3.125 25C3.125 30.8016 5.42968 36.3656 9.53204 40.468C13.6344 44.5703 19.1984 46.875 25 46.875ZM25 50C31.6304 50 37.9893 47.3661 42.6777 42.6777C47.3661 37.9893 50 31.6304 50 25C50 18.3696 47.3661 12.0107 42.6777 7.32233C37.9893 2.63392 31.6304 0 25 0C18.3696 0 12.0107 2.63392 7.32233 7.32233C2.63392 12.0107 0 18.3696 0 25C0 31.6304 2.63392 37.9893 7.32233 42.6777C12.0107 47.3661 18.3696 50 25 50Z" fill="#C280FF"/>
<path fill-rule="evenodd" clip-rule="evenodd" d="M37.0438 12.9564C37.1893 13.1015 37.3047 13.2739 37.3835 13.4638C37.4623 13.6536 37.5028 13.8571 37.5028 14.0626C37.5028 14.2681 37.4623 14.4716 37.3835 14.6615C37.3047 14.8513 37.1893 15.0237 37.0438 15.1689L15.1688 37.0439C14.8754 37.3373 14.4774 37.5021 14.0625 37.5021C13.6476 37.5021 13.2497 37.3373 12.9563 37.0439C12.6629 36.7505 12.498 36.3525 12.498 35.9376C12.498 35.5227 12.6629 35.1248 12.9563 34.8314L34.8313 12.9564C34.9764 12.8108 35.1488 12.6954 35.3387 12.6166C35.5285 12.5379 35.732 12.4973 35.9375 12.4973C36.143 12.4973 36.3465 12.5379 36.5364 12.6166C36.7262 12.6954 36.8986 12.8108 37.0438 12.9564Z" fill="#C280FF"/>
<path fill-rule="evenodd" clip-rule="evenodd" d="M12.9561 12.9564C12.8106 13.1015 12.6952 13.2739 12.6164 13.4638C12.5376 13.6536 12.4971 13.8571 12.4971 14.0626C12.4971 14.2681 12.5376 14.4716 12.6164 14.6615C12.6952 14.8513 12.8106 15.0237 12.9561 15.1689L34.8311 37.0439C35.1245 37.3373 35.5224 37.5021 35.9374 37.5021C36.3523 37.5021 36.7502 37.3373 37.0436 37.0439C37.337 36.7505 37.5018 36.3525 37.5018 35.9376C37.5018 35.5227 37.337 35.1248 37.0436 34.8314L15.1686 12.9564C15.0235 12.8108 14.851 12.6954 14.6612 12.6166C14.4714 12.5379 14.2679 12.4973 14.0624 12.4973C13.8568 12.4973 13.6533 12.5379 13.4635 12.6166C13.2737 12.6954 13.1013 12.8108 12.9561 12.9564Z" fill="#C280FF"/>
</svg>
